<svg width="100" height="100" viewBox="0 0 100 100" fill="none" xmlns="http://www.w3.org/2000/svg">
  <circle cx="50" cy="50" r="50" fill="#1E3A8A"/>
  <path d="M50 25C36.19 25 25 36.19 25 50C25 63.81 36.19 75 50 75C63.81 75 75 63.81 75 50C75 36.19 63.81 25 50 25ZM50 70C38.95 70 30 61.05 30 50C30 38.95 38.95 30 50 30C61.05 30 70 38.95 70 50C70 61.05 61.05 70 50 70Z" fill="#FFFFFF"/>
  <path d="M60 45H55V40C55 37.24 52.76 35 50 35C47.24 35 45 37.24 45 40V45H40C37.24 45 35 47.24 35 50C35 52.76 37.24 55 40 55H45V60C45 62.76 47.24 65 50 65C52.76 65 55 62.76 55 60V55H60C62.76 55 65 52.76 65 50C65 47.24 62.76 45 60 45Z" fill="#FFFFFF"/>
</svg> 